<?xml version="1.0" encoding="UTF-8" standalone="no"?>
<svg
   xmlns:dc="http://purl.org/dc/elements/1.1/"
   xmlns:cc="http://creativecommons.org/ns#"
   xmlns:rdf="http://www.w3.org/1999/02/22-rdf-syntax-ns#"
   xmlns:svg="http://www.w3.org/2000/svg"
   xmlns="http://www.w3.org/2000/svg"
   height="32"
   width="32"
   version="1.1"
   id="svg4">
  <metadata
     id="metadata10">
    <rdf:RDF>
      <cc:Work
         rdf:about="">
        <dc:format>image/svg+xml</dc:format>
        <dc:type
           rdf:resource="http://purl.org/dc/dcmitype/StillImage" />
        <dc:title></dc:title>
      </cc:Work>
    </rdf:RDF>
  </metadata>
  <defs
     id="defs8" />
  <path
     d="M 10.819792,3.5302423 C 8.5879279,5.7236613 9.2039132,9.226889 9.2039132,9.226889 c 0,0 2.2780418,2.472285 6.7537578,2.472285 4.475672,0 6.755066,-2.472285 6.755066,-2.472285 0,0 0.606784,-3.4561385 -1.577634,-5.6519526 1.36658,-0.6965274 2.171248,-1.7033269 1.838793,-2.3877633 -0.377281,-0.77139158 -2.041955,-0.8401908 -3.725119,-0.1533205 -0.625229,0.2547228 -1.158184,0.5782445 -1.572359,0.9222782 -0.52502,-0.086916 -1.081657,-0.1460579 -1.718831,-0.1460579 -0.593529,0 -1.121167,0.051918 -1.618538,0.1255455 C 13.931459,1.5976105 13.407789,1.2837467 12.797039,1.0338526 11.113875,0.34937747 9.4465418,0.4181763 9.0719195,1.1871731 8.7448684,1.8571233 9.5060171,2.8361098 10.819792,3.5302423 Z M 27.751674,19.492666 c -0.34824,-0.0676 -0.680652,-0.106231 -1.00251,-0.135203 0,-0.08209 0.01583,-0.159346 0.01583,-0.243829 0,-1.297718 -0.200502,-2.536179 -0.52502,-3.713256 0.693864,0.05431 1.577636,-0.09174 2.47196,-0.455016 1.683164,-0.686871 2.743714,-1.8687 2.369092,-2.635263 -0.374622,-0.771391 -2.041957,-0.84019 -3.72512,-0.153321 -0.786179,0.321088 -1.427238,0.752078 -1.857284,1.193882 -0.327134,-0.704987 -0.696481,-1.3822 -1.131761,-1.997876 -1.274265,0.971762 -3.685526,2.4228 -7.051851,2.745087 v 12.430223 c 0,0 -0.0106,1.236142 -1.352061,1.236142 -1.340199,0 -1.350751,-1.236142 -1.350751,-1.236142 V 14.10266 C 11.243294,13.780336 8.8306415,12.326902 7.5590357,11.357573 7.1422026,11.949068 6.7834091,12.593716 6.4641674,13.263705 6.030196,12.853268 5.424722,12.458513 4.6926144,12.159135 3.0094516,11.474659 1.3421173,11.543459 0.96749474,12.312455 0.59156388,13.081413 1.653423,14.260848 3.3365865,14.947718 c 0.8376345,0.341715 1.6686422,0.49492 2.3414015,0.467262 -0.3231676,1.17449 -0.5263292,2.408314 -0.5263292,3.701165 0,0.08452 0.015833,0.164175 0.018486,0.251091 -0.2836159,0.02897 -0.5777842,0.0676 -0.8771867,0.125546 -2.1936624,0.415267 -3.8741667,1.453433 -3.75019268,2.310505 0.12401602,0.8619 2.00502198,1.216827 4.20396078,0.799167 0.2862323,-0.05312 0.5672314,-0.120718 0.8349753,-0.195543 0.3864846,1.576429 1.0051282,3.039519 1.8612515,4.299805 -0.5078398,0.234172 -1.0354772,0.579442 -1.5209037,1.02851 -1.3455178,1.231313 -1.8915588,2.728205 -1.2188845,3.343881 0.6727588,0.615637 2.3070835,0.115889 3.6525587,-1.112992 0.3944197,-0.362151 0.7110019,-0.743617 0.9563323,-1.120254 1.8375282,1.646542 4.1393372,2.631593 6.6508902,2.631593 2.547137,0 4.88723,-1.014023 6.73396,-2.701667 0.247991,0.398347 0.580401,0.803956 0.997235,1.185461 1.342816,1.231313 2.981151,1.731063 3.653868,1.115425 0.672716,-0.615637 0.126634,-2.110134 -1.218843,-3.341447 -0.519701,-0.47804 -1.084316,-0.840191 -1.622506,-1.07923 0.849496,-1.255457 1.461556,-2.718548 1.844114,-4.290265 0.303413,0.08692 0.619995,0.169004 0.952365,0.234172 2.197546,0.417662 4.078637,0.06034 4.20527,-0.799166 0.118739,-0.854638 -1.561764,-1.892805 -3.756736,-2.308071 z"
     id="path2"
     style="stroke-width:0.04038053;fill:#0000ff;fill-opacity:1;stroke:none" />
</svg>
