<?xml version="1.0" encoding="UTF-8" standalone="no"?>
<svg
   xmlns:dc="http://purl.org/dc/elements/1.1/"
   xmlns:cc="http://creativecommons.org/ns#"
   xmlns:rdf="http://www.w3.org/1999/02/22-rdf-syntax-ns#"
   xmlns:svg="http://www.w3.org/2000/svg"
   xmlns="http://www.w3.org/2000/svg"
   xmlns:xlink="http://www.w3.org/1999/xlink"
   xmlns:sodipodi="http://sodipodi.sourceforge.net/DTD/sodipodi-0.dtd"
   xmlns:inkscape="http://www.inkscape.org/namespaces/inkscape"
   version="1.1"
   width="32"
   height="16"
   id="svg2"
   inkscape:version="0.91 r13725"
   sodipodi:docname="steps.svg">
  <metadata
     id="metadata11">
    <rdf:RDF>
      <cc:Work
         rdf:about="">
        <dc:format>image/svg+xml</dc:format>
        <dc:type
           rdf:resource="http://purl.org/dc/dcmitype/StillImage" />
        <dc:title></dc:title>
      </cc:Work>
    </rdf:RDF>
  </metadata>
  <defs
     id="defs9" />
  <sodipodi:namedview
     pagecolor="#ffffff"
     bordercolor="#666666"
     borderopacity="1"
     objecttolerance="10"
     gridtolerance="10"
     guidetolerance="10"
     inkscape:pageopacity="0"
     inkscape:pageshadow="2"
     inkscape:window-width="1791"
     inkscape:window-height="1019"
     id="namedview7"
     showgrid="false"
     inkscape:zoom="5.6482043"
     inkscape:cx="-26.505584"
     inkscape:cy="-18.794773"
     inkscape:window-x="0"
     inkscape:window-y="32"
     inkscape:window-maximized="1"
     inkscape:current-layer="svg2" />
  <g
     transform="matrix(0.08568379,0.09858282,-0.09858282,0.08568379,30.844262,-45.335141)"
     id="layer1">
    <g
       id="g3961">
      <path
         d="m 248.52493,377.9414 c -13.98683,-16.26064 -56.22205,15.48329 -43.40109,32.67876 5.73103,7.68645 14.47959,14.72781 23.94225,15.99681 19.77776,2.65232 30.45661,-37.56373 19.45884,-48.67557 z m -49.22842,78.26723 c 16.05797,-8.58108 9.79877,-11.46401 -0.44806,-20.24443 -14.03681,-12.02802 -15.1836,-11.97287 -21.99422,2.41776 -3.33267,7.0418 -4.01937,13.31906 1.78638,17.69902 6.85249,5.16964 15.44001,2.91492 20.6559,0.12763 z"
         id="path3043"
         style="fill:#000000"
         inkscape:connector-curvature="0" />
      <use
         transform="matrix(-0.12437085,-0.9922358,-0.9922358,0.12437085,694.32033,453.35393)"
         id="use3048"
         x="0"
         y="0"
         width="256"
         height="256"
         xlink:href="#path3043" />
    </g>
  </g>
</svg>
